<?xml version="1.0" encoding="UTF-8"?>
<svg width="200" height="200" viewBox="0 0 200 200" xmlns="http://www.w3.org/2000/svg">
  <!-- Background circle -->
  <circle cx="100" cy="100" r="90" fill="#FFE5E5" />
  
  <!-- Sun rays -->
  <g fill="#FF6B6B">
    <path d="M100 20 L105 35 L120 35 L110 45 L115 60 L100 50 L85 60 L90 45 L80 35 L95 35 Z" />
    <path d="M180 100 L165 105 L165 120 L155 110 L140 115 L150 100 L140 85 L155 90 L165 80 L165 95 Z" />
    <path d="M100 180 L95 165 L95 150 L105 160 L120 155 L110 170 L95 165 L90 150 L100 160 L95 145 Z" />
    <path d="M20 100 L35 95 L35 80 L45 90 L60 85 L50 100 L60 115 L45 110 L35 120 L35 105 Z" />
  </g>
  
  <!-- Center star -->
  <path d="M100 70 L110 90 L130 90 L115 105 L120 125 L100 115 L80 125 L85 105 L70 90 L90 90 Z" fill="#FF5252" />
  
  <!-- Text -->
  <text x="100" y="160" font-family="Arial" font-size="14" text-anchor="middle" fill="#666">
    Daystar Daycare
  </text>
</svg> 